<?xml version="1.0" standalone="no"?><!DOCTYPE svg PUBLIC "-//W3C//DTD SVG 1.1//EN" "http://www.w3.org/Graphics/SVG/1.1/DTD/svg11.dtd"><svg t="1767161843753" class="icon" viewBox="0 0 1024 1024" version="1.1" xmlns="http://www.w3.org/2000/svg" p-id="5299" width="256" height="256" xmlns:xlink="http://www.w3.org/1999/xlink"><path d="M170.5728 996.4544L423.9616 1024l393.1392-31.2832-372.9408-27.3152-273.5872 31.0528z" fill="#2B2B2B" opacity=".1" p-id="5300"></path><path d="M771.1232 394.5216l21.8368-19.2768 18.8672-32.1024-1.3824-73.344-43.8784 44.5952-12.928 51.2768 17.4848 28.8512z" fill="#8B6651" p-id="5301"></path><path d="M886.5792 135.5264l-6.7584 4.992-30.1568 53.376-12.5184 17.7152 3.1744 35.9424-28.4928 19.2512 4.2752 14.1056-17.6384 41.0112-16.4096 10.7008-19.2512 42.2144 30.1568 0.4096 33.1008-93.8752 30.464-25.6256-1.152-44.928 31.2064-75.2896z" fill="#35785D" p-id="5302"></path><path d="M802.176 330.5216l13.9264-49.6128-4.2752-14.1056-29.7728 65.8176 20.1216-2.0992zM879.8208 140.5184l6.7584-4.992-11.3408 0.8704-38.0928 75.2128 15.6672-9.1904 27.008-61.9008z" fill="#54B08B" p-id="5303"></path><path d="M744.9344 332.6208l11.4688-39.3984 48.384-31.4112 7.04 4.992-9.6512 20.8896-20.0192 17.536-0.1024 27.392-8.4992 18.6112-19.9168 14.4384-8.704-33.0496z" fill="#DFBDA5" p-id="5304"></path><path d="M840.7808 269.0048l-3.6352 82.3552-44.1856 23.8848 18.8672-108.4416 28.9536 2.2016z" fill="#C3987B" p-id="5305"></path><path d="M496.4608 924.5952v34.9952l43.2128-13.3376 24.5504-18.6624 8.0384-31.5136-75.8016 28.5184zM310.8096 893.1072l-12.9792 66.6624 37.4016-0.1792 35.4816-22.4512 7.9616-16.768-67.8656-27.264z" fill="#35785D" p-id="5306"></path><path d="M564.224 927.5904l-67.7632 32v18.176l57.472 4.8384 70.6048-4.8384-60.3136-50.176z" fill="#54B08B" p-id="5307"></path><path d="M496.4608 977.7664h128.0768v17.3056h-128.0768z" fill="#35785D" p-id="5308"></path><path d="M370.7136 937.1392l15.7696 50.2272-44.3648 8.6528-50.5856-8.6528 6.2976-27.5968 72.8832-22.6304z" fill="#54B08B" p-id="5309"></path><path d="M291.5328 987.3664h94.9504v17.3056h-94.9504z" fill="#35785D" p-id="5310"></path><path d="M232.8064 663.7056l-26.368 30.3872-11.0592 12.7488 14.1312 13.0816 34.6368-47.8464-11.3408-8.3712z" fill="#C3987B" p-id="5311"></path><path d="M206.4384 614.656l-33.7408 12.7488-13.7216 29.7472 17.3824 40.7808 19.0208 8.9088 0.0256-0.0256 26.6752-27.392-15.6416-64.768z" fill="#DFBDA5" p-id="5312"></path><path d="M234.112 662.2208l-50.0736-59.4688-11.3408 24.6528 49.3824 52.0192 10.7264-15.7184 1.3056-1.4848z" fill="#8B6651" p-id="5313"></path><path d="M195.3792 706.8416L158.976 657.152l-13.952 48.3328 22.9632 33.2288 27.4176-31.8976-0.0256 0.0256z" fill="#C3987B" p-id="5314"></path><path d="M376.448 441.344l-25.4464-3.84-67.1232-7.04 89.6256 72.32 6.3232 21.248 40.9088 83.2256 55.0144-53.6576-99.3024-112.256z" fill="#738D57" p-id="5315"></path><path d="M342.1184 536.8576l29.6192 51.968 31.0272 13.9264 22.3488-31.8208-45.2864-78.8992-37.7088 44.8256z" fill="#446125" p-id="5316"></path><path d="M624.8704 508.3136l-132.1984 194.3552-67.5584-131.7376-53.376 17.8944-101.1968 281.7792 136.7552 82.7648 0.4864 0.3584 226.816-89.2928-9.728-356.1216z" fill="#738D57" p-id="5317"></path><path d="M577.152 522.9568l-44.7488 78.1568-22.8096-20.4544-33.8432-27.0592-50.6368 17.3312L409.6 934.3232l202.24-427.264-32.9728 11.264-1.7152 4.6336zM283.8784 430.464L180.48 567.9616l124.6976 18.9952 49.1008-119.8848-70.4-36.608z" fill="#99C26D" p-id="5318"></path><path d="M180.4544 567.9616h0.0256l49.6128 99.584 28.032-9.7024 92.8768-185.7536-170.5472 95.872z" fill="#738D57" p-id="5319"></path><path d="M354.2784 467.072L230.0928 657.152l45.0304-3.3792 25.856-15.6416 78.848-146.0992-25.5488-24.96z" fill="#5A753D" p-id="5320"></path><path d="M222.08 679.424l66.7904-22.272 12.1088-19.0208-70.8864 19.0208-49.6128-89.1904h-0.0256l-12.5952 16.5376 54.2208 94.9248z" fill="#35785D" p-id="5321"></path><path d="M653.952 237.1072l-71.2192 13.7472 4.7616 35.584 7.2704 43.1872 35.9936-25.0624 23.1936-67.456z" fill="#8F8F8F" p-id="5322"></path><path d="M574.3104 204.2624l19.712 53.5296 59.9296-20.6848-79.6416-32.8448z" fill="#DDDDDC" p-id="5323"></path><path d="M602.3936 374.8352l13.824 11.264 29.2352 5.9648 25.5488-54.4256-40.704 13.5936-27.904 23.6032z" fill="#8F8F8F" p-id="5324"></path><path d="M630.7584 304.5632h-48.0256l19.6608 70.272 68.608-37.1968-40.2432-33.0752zM335.1296 351.232l-58.7776 16.1024-17.1264 44.8768 35.3792 6.5024 45.1584-38.2976-4.6336-29.184z" fill="#C4C4C4" p-id="5325"></path><path d="M327.5264 310.2208l-81.6896 21.4528 30.5152 35.6608 55.6032 10.496 16.1792-26.5984-20.608-41.0112z" fill="#8F8F8F" p-id="5326"></path><path d="M327.7568 251.4176l-16.1536 3.4816-12.3136-15.744-53.4528 92.5184 83.5328-11.5456-1.6128-68.7104z" fill="#DDDDDC" p-id="5327"></path><path d="M373.9648 389.9904l-114.7392 22.2208 24.6528 18.2528 98.4576-16.1024-8.3712-24.3712zM584.5504 203.5712l0.1536 0.6912-0.0768-0.6912h-0.0768z" fill="#8F8F8F" p-id="5328"></path><path d="M780.416 445.7216l-48.2816-97.6896-41.4208 51.84-46.1312 96.1024 135.8336-50.2528z" fill="#738D57" p-id="5329"></path><path d="M602.3936 374.8352L596.48 431.3856l62.2848 51.2512 31.9488-82.7648-88.32-25.0368z" fill="#99C26D" p-id="5330"></path><path d="M611.84 507.0592l88.1152 13.4912 53.6832-37.9136 14.6944-44.416-109.568 44.416L611.84 432.896l-75.1104-77.6192L611.84 507.0592z" fill="#5A753D" p-id="5331"></path><path d="M744.9344 332.6208l-12.8 15.4112 36.1984 90.1888-68.3776 82.3296 19.9424 1.792 71.8336-79.0784-46.7968-110.6432z" fill="#35785D" p-id="5332"></path><path d="M578.8672 518.3232l32.9728-11.264-16.4352-33.4592-16.5376 44.7232z" fill="#738D57" p-id="5333"></path><path d="M475.7504 553.6l4.3008 2.7136-4.3008-2.7136zM475.7504 553.6l-124.7488-79.1296 124.7488 79.1296z" fill="#54B08B" p-id="5334"></path><path d="M583.6288 474.2144l-16.64 44.9792-1.5872 3.7376 13.4656-4.608 16.5376-44.7232-6.2976-12.8512-5.4784 13.4656z" fill="#35785D" p-id="5335"></path><path d="M455.936 398.1568l-8.2176 34.7392-77.0048 34.176 116.9408 81.2288 0.6912 0.9984 77.056-26.368-109.4656-124.7744z" fill="#54B08B" p-id="5336"></path><path d="M349.9264 460.9536l20.7872 6.1184 91.0336-34.176-129.792-55.0656-37.3504 40.8832 55.3216 42.24z" fill="#72C9A6" p-id="5337"></path><path d="M532.4032 345.2416l-0.1536-0.3072-0.5376 0.3584 0.6912-0.0512zM480.0768 536.5248l-185.472-117.8112-10.7264 11.7504 191.872 123.136 70.6816 91.648 38.528-122.2912-104.8832 13.568zM455.936 398.1568l-42.5728-29.0816-78.2336-17.8432-3.1744 26.5984 129.792 55.0656-5.8112-34.7392z" fill="#35785D" p-id="5338"></path><path d="M607.4624 336l-42.5728-248.576-70.7584-54.5024-44.9024 37.9648-93.2352-6.1184-16.2304 14.7712L373.504 145.408l57.9584 238.848 85.2736-23.5264 90.7264-24.7296z" fill="#DFBDA5" p-id="5339"></path><path d="M494.1312 47.104l70.7584 40.32-42.1888-56.2944-34.7136-10.1632-7.296 11.9552 13.44 14.1824z" fill="#ECECEB" p-id="5340"></path><path d="M487.9872 20.9664L416.64 0.0256l1.6896 53.1968 38.5024 34.2016 37.2992-40.32-6.144-26.1376z" fill="#DDDDDC" p-id="5341"></path><path d="M348.672 53.2224l0.768 8.3456 5.76 4.736 101.504 21.248 0.128-0.128L416.64 0.0256 348.672 53.2224z" fill="#C4C4C4" p-id="5342"></path><path d="M445.824 126.8992l3.4048 10.24-36.7616 26.8032-4.7616-11.9808 38.1184-25.0624zM499.584 117.7856l4.0704 12.2368 38.3232 5.9904 2.5856-8.2944-44.9792-9.9328z" fill="#8F8F8F" p-id="5343"></path><path d="M412.4672 163.9424l91.776 93.8496-4.6848-79.9488-33.7664-32.64 28.6208-5.0176 14.7456 41.1392 13.696 22.7072 19.1232-68.0192-38.3232-5.9904-9.2416 10.1632-28.6208 5.0176-16.5632-8.064-36.7616 26.8032zM381.3888 108.0832l-25.3952-43.3152-41.856 71.2448 21.0176 24.2688 4.608 63.872-18.9696-21.2992-13.7984 20.9152-23.1168 8.5504 18.9952 55.424 19.5584-4.8896 12.7232 2.56-5.7856 34.7136 5.76 31.104 83.2 32.3072 15.4112 1.0496-52.352-276.5056z" fill="#C3987B" p-id="5344"></path><path d="M322.432 282.8544l6.9376 37.2736 18.4832-44.1088-25.4208 6.8352zM473.6 372.6336l-55.2704 10.9056 42.0096 16.3328 13.2608-27.2384zM299.2896 239.1552l32.6656 21.8624-8.6016-29.6448-24.064 7.7824z" fill="#8B6651" p-id="5345"></path><path d="M409.6 934.3232l-139.0592-63.7184-6.144 19.3792 142.8992 63.3856 0.4864 0.3584 227.3536-68.2752-0.5376-21.0176-224.9984 69.888z" fill="#35785D" p-id="5346"></path><path d="M504.2432 257.792l-62.3872 56.1408 38.2208 222.592 70.016 64.4864 5.376 9.4976-2.432 9.4464-6.6048 25.2928 38.3488 26.6496-25.5744-272.0256-36.4288-138.0608-18.5344-4.0192z" fill="#C4C4C4" p-id="5347"></path><path d="M592.128 594.5856l32.7424-86.272-37.376-221.8752-54.144-35.0208-10.5728 10.3936 62.0032 410.0864 21.0432-40.8576-10.7776-17.5104-5.9392-8.6528 3.0208-10.2912z" fill="#ECECEB" p-id="5348"></path><path d="M595.0464 613.5296l-42.0096 6.4256-2.944-18.944 42.0352-6.4256 2.9184 18.944z" fill="#446125" p-id="5349"></path><path d="M551.0912 294.0672l-58.1376 9.9328-2.6112-11.8016 58.1376-9.9072 2.6112 11.776z" fill="#8B6651" p-id="5350"></path><path d="M448.8192 194.7648m-10.8544 0a10.8544 10.8544 0 1 0 21.7088 0 10.8544 10.8544 0 1 0-21.7088 0Z" fill="#2B2B2B" p-id="5351"></path><path d="M533.3504 175.5904m-10.8544 0a10.8544 10.8544 0 1 0 21.7088 0 10.8544 10.8544 0 1 0-21.7088 0Z" fill="#2B2B2B" p-id="5352"></path><path d="M494.4128 140.1856l20.864 29.6448 18.0736 81.5872-29.1072 6.3744-15.7696-80.5632-22.6816-32.0256 28.6208-5.0176z" fill="#E8CAB6" p-id="5353"></path><path d="M272.3072 113.792l34.688 109.9776 11.0848-3.968 23.6288 13.6704 6.8096-86.6304-27.2128-15.9488 34.688-66.1248-7.3216-11.5456-76.3648 60.5696zM533.3504 251.4176l-29.1072 6.3744 19.7632 12.0064 9.344-18.3808z" fill="#8F8F8F" p-id="5354"></path></svg>